<svg width="53" height="53" viewBox="0 0 53 53" fill="none" xmlns="http://www.w3.org/2000/svg">
<g filter="url(#filter0_d_57972_1444)">
<path d="M22.1172 22.5C22.1172 24.8785 24.0453 26.8066 26.4238 26.8066C28.8024 26.8066 30.7305 24.8785 30.7305 22.5C30.7305 20.1215 28.8024 18.1934 26.4238 18.1934C24.0453 18.1934 22.1172 20.1215 22.1172 22.5Z" fill="#CACACA"/>
<path d="M16.3521 14.8803C16.5591 14.3194 16.8894 13.8116 17.3185 13.3948C17.7353 12.9656 18.2428 12.6354 18.8041 12.4283C19.2593 12.2515 19.9432 12.0411 21.2029 11.9837C22.5655 11.9216 22.9741 11.9082 26.4238 11.9082C29.8738 11.9082 30.2824 11.9212 31.6447 11.9834C32.9044 12.0411 33.5886 12.2515 34.0435 12.4283C34.6048 12.6354 35.1126 12.9656 35.5291 13.3948C35.9582 13.8116 36.2885 14.319 36.4959 14.8803C36.6727 15.3356 36.8831 16.0198 36.9405 17.2795C37.0026 18.6418 37.016 19.0503 37.016 22.5004C37.016 25.9501 37.0026 26.3587 36.9405 27.7213C36.8831 28.981 36.6727 29.6649 36.4959 30.1201C36.2885 30.6814 35.9586 31.1889 35.5294 31.6057C35.1126 32.0348 34.6052 32.3651 34.0438 32.5721C33.5886 32.7493 32.9044 32.9597 31.6447 33.0171C30.2824 33.0792 29.8742 33.0922 26.4241 33.0922C22.9737 33.0922 22.5652 33.0792 21.2032 33.0171C19.9436 32.9597 19.2593 32.7493 18.8041 32.5721C17.6773 32.1375 16.7867 31.2469 16.3521 30.1201C16.1753 29.6649 15.9648 28.981 15.9071 27.7213C15.845 26.3587 15.8319 25.9501 15.8319 22.5004C15.8319 19.0503 15.845 18.6418 15.9071 17.2795C15.9645 16.0198 16.1749 15.3356 16.3521 14.8803V14.8803ZM26.4238 29.1344C30.0881 29.1344 33.0585 26.1643 33.0585 22.5001C33.0585 18.8358 30.0881 15.8657 26.4238 15.8657C22.7599 15.8657 19.7894 18.8358 19.7894 22.5001C19.7894 26.1643 22.7599 29.1344 26.4238 29.1344ZM19.5271 17.1538C20.3834 17.1538 21.0776 16.4596 21.0776 15.6034C21.0776 14.7471 20.3834 14.0529 19.5271 14.0529C18.6709 14.0529 17.9767 14.7471 17.9767 15.6034C17.977 16.4596 18.6709 17.1538 19.5271 17.1538Z" fill="#CACACA"/>
<path d="M26.6204 0C38.9364 0 48.9238 9.98747 48.9238 22.3034C48.9238 34.6194 38.9364 44.6069 26.6204 44.6069C14.3044 44.6069 4.31696 34.6194 4.31696 22.3034C4.31696 9.98747 14.3044 0 26.6204 0ZM13.8906 27.5836C13.9525 28.9469 14.1693 29.8777 14.4858 30.6924C15.1512 32.4127 16.5111 33.7727 18.2314 34.438C19.0458 34.7545 19.9769 34.971 21.3399 35.0332C22.7057 35.0955 23.1419 35.1105 26.6201 35.1105C30.0985 35.1105 30.5345 35.0955 31.9005 35.0332C33.2635 34.971 34.1946 34.7545 35.009 34.438C35.8639 34.1164 36.6378 33.6124 37.2776 32.9607C37.929 32.3212 38.433 31.547 38.7546 30.6924C39.0711 29.878 39.2879 28.9469 39.3498 27.5839C39.4128 26.2178 39.4274 25.7815 39.4274 22.3034C39.4274 18.8253 39.4128 18.389 39.3502 17.0233C39.2883 15.66 39.0718 14.7292 38.7553 13.9145C38.4337 13.0599 37.9293 12.2857 37.2776 11.6462C36.6382 10.9945 35.8639 10.4905 35.0094 10.1689C34.1946 9.85236 33.2638 9.63592 31.9005 9.57364C30.5348 9.51136 30.0985 9.49638 26.6204 9.49638C23.1423 9.49638 22.706 9.51136 21.3403 9.57398C19.9769 9.63592 19.0462 9.85236 18.2314 10.1685C17.3769 10.4901 16.6026 10.9945 15.9628 11.6462C15.3114 12.286 14.8071 13.0599 14.4858 13.9145C14.169 14.7292 13.9525 15.66 13.8903 17.0233C13.828 18.389 13.8133 18.8253 13.8133 22.3034C13.8133 25.7815 13.828 26.2178 13.8906 27.5836Z" fill="#CACACA"/>
</g>
<defs>
<filter id="filter0_d_57972_1444" x="0" y="0" width="53" height="53" filterUnits="userSpaceOnUse" color-interpolation-filters="sRGB">
<feFlood flood-opacity="0" result="BackgroundImageFix"/>
<feColorMatrix in="SourceAlpha" type="matrix" values="0 0 0 0 0 0 0 0 0 0 0 0 0 0 0 0 0 0 127 0" result="hardAlpha"/>
<feOffset dy="4"/>
<feGaussianBlur stdDeviation="2"/>
<feComposite in2="hardAlpha" operator="out"/>
<feColorMatrix type="matrix" values="0 0 0 0 0 0 0 0 0 0 0 0 0 0 0 0 0 0 0.25 0"/>
<feBlend mode="normal" in2="BackgroundImageFix" result="effect1_dropShadow_57972_1444"/>
<feBlend mode="normal" in="SourceGraphic" in2="effect1_dropShadow_57972_1444" result="shape"/>
</filter>
</defs>
</svg>
